{
    "asset" : {
        "copyright" : "your mom",
        "generator" : "Khronos glTF Blender I/O v1.0.5",
        "version" : "2.0"
    },
    "scene" : 0,
    "scenes" : [
        {
            "name" : "Scene",
            "nodes" : [
                0,
                1,
                2
            ]
        }
    ],
    "nodes" : [
        {
            "mesh" : 0,
            "name" : "fleorst0ug9hifbngev"
        },
        {
            "mesh" : 1,
            "name" : "learkshgbxd7u8oete43rgfiw",
            "translation" : [
                -25,
                1,
                0
            ]
        },
        {
            "mesh" : 2,
            "name" : "nhmigfojgun8jn65r",
            "rotation" : [
                0,
                -0.7071067690849304,
                0,
                0.7071068286895752
            ],
            "translation" : [
                -10,
                1,
                0
            ]
        }
    ],
    "materials" : [
        {
            "doubleSided" : true,
            "name" : "Material.001",
            "pbrMetallicRoughness" : {
                "baseColorTexture" : {
                    "index" : 0,
                    "texCoord" : 0
                },
                "metallicFactor" : 0,
                "roughnessFactor" : 0.4000000059604645
            }
        },
        {
            "doubleSided" : true,
            "name" : "Material.002",
            "pbrMetallicRoughness" : {
                "baseColorTexture" : {
                    "index" : 1,
                    "texCoord" : 0
                },
                "metallicFactor" : 0,
                "roughnessFactor" : 0.5
            }
        },
        {
            "doubleSided" : true,
            "name" : "Material.003",
            "pbrMetallicRoughness" : {
                "baseColorTexture" : {
                    "index" : 2,
                    "texCoord" : 0
                },
                "metallicFactor" : 0,
                "roughnessFactor" : 0.5
            }
        }
    ],
    "meshes" : [
        {
            "name" : "Cube.001",
            "primitives" : [
                {
                    "attributes" : {
                        "POSITION" : 0,
                        "NORMAL" : 1,
                        "TEXCOORD_0" : 2
                    },
                    "indices" : 3,
                    "material" : 0
                }
            ]
        },
        {
            "name" : "Cube.002",
            "primitives" : [
                {
                    "attributes" : {
                        "POSITION" : 4,
                        "NORMAL" : 5,
                        "TEXCOORD_0" : 6
                    },
                    "indices" : 7,
                    "material" : 1
                }
            ]
        },
        {
            "name" : "Cube",
            "primitives" : [
                {
                    "attributes" : {
                        "POSITION" : 8,
                        "NORMAL" : 9,
                        "TEXCOORD_0" : 10
                    },
                    "indices" : 11,
                    "material" : 2
                }
            ]
        }
    ],
    "textures" : [
        {
            "source" : 0
        },
        {
            "source" : 1
        },
        {
            "source" : 2
        }
    ],
    "images" : [
        {
            "bufferView" : 4,
            "mimeType" : "image/png",
            "name" : "stonebrick"
        },
        {
            "bufferView" : 9,
            "mimeType" : "image/jpeg",
            "name" : "hedge"
        },
        {
            "bufferView" : 14,
            "mimeType" : "image/jpeg",
            "name" : "woodplank"
        }
    ],
    "accessors" : [
        {
            "bufferView" : 0,
            "componentType" : 5126,
            "count" : 84,
            "max" : [
                26,
                0.5,
                25
            ],
            "min" : [
                -25,
                -1,
                -26
            ],
            "type" : "VEC3"
        },
        {
            "bufferView" : 1,
            "componentType" : 5126,
            "count" : 84,
            "type" : "VEC3"
        },
        {
            "bufferView" : 2,
            "componentType" : 5126,
            "count" : 84,
            "type" : "VEC2"
        },
        {
            "bufferView" : 3,
            "componentType" : 5123,
            "count" : 120,
            "type" : "SCALAR"
        },
        {
            "bufferView" : 5,
            "componentType" : 5126,
            "count" : 96,
            "max" : [
                51,
                1,
                25.000001907348633
            ],
            "min" : [
                -1.9073486328125e-06,
                -1,
                -26.000001907348633
            ],
            "type" : "VEC3"
        },
        {
            "bufferView" : 6,
            "componentType" : 5126,
            "count" : 96,
            "type" : "VEC3"
        },
        {
            "bufferView" : 7,
            "componentType" : 5126,
            "count" : 96,
            "type" : "VEC2"
        },
        {
            "bufferView" : 8,
            "componentType" : 5123,
            "count" : 144,
            "type" : "SCALAR"
        },
        {
            "bufferView" : 10,
            "componentType" : 5126,
            "count" : 240,
            "max" : [
                20.000001907348633,
                0,
                9.5
            ],
            "min" : [
                -15,
                -1,
                -30
            ],
            "type" : "VEC3"
        },
        {
            "bufferView" : 11,
            "componentType" : 5126,
            "count" : 240,
            "type" : "VEC3"
        },
        {
            "bufferView" : 12,
            "componentType" : 5126,
            "count" : 240,
            "type" : "VEC2"
        },
        {
            "bufferView" : 13,
            "componentType" : 5123,
            "count" : 360,
            "type" : "SCALAR"
        }
    ],
    "bufferViews" : [
        {
            "buffer" : 0,
            "byteLength" : 1008,
            "byteOffset" : 0
        },
        {
            "buffer" : 0,
            "byteLength" : 1008,
            "byteOffset" : 1008
        },
        {
            "buffer" : 0,
            "byteLength" : 672,
            "byteOffset" : 2016
        },
        {
            "buffer" : 0,
            "byteLength" : 240,
            "byteOffset" : 2688
        },
        {
            "buffer" : 0,
            "byteLength" : 1375369,
            "byteOffset" : 2928
        },
        {
            "buffer" : 0,
            "byteLength" : 1152,
            "byteOffset" : 1378300
        },
        {
            "buffer" : 0,
            "byteLength" : 1152,
            "byteOffset" : 1379452
        },
        {
            "buffer" : 0,
            "byteLength" : 768,
            "byteOffset" : 1380604
        },
        {
            "buffer" : 0,
            "byteLength" : 288,
            "byteOffset" : 1381372
        },
        {
            "buffer" : 0,
            "byteLength" : 349509,
            "byteOffset" : 1381660
        },
        {
            "buffer" : 0,
            "byteLength" : 2880,
            "byteOffset" : 1731172
        },
        {
            "buffer" : 0,
            "byteLength" : 2880,
            "byteOffset" : 1734052
        },
        {
            "buffer" : 0,
            "byteLength" : 1920,
            "byteOffset" : 1736932
        },
        {
            "buffer" : 0,
            "byteLength" : 720,
            "byteOffset" : 1738852
        },
        {
            "buffer" : 0,
            "byteLength" : 282414,
            "byteOffset" : 1739572
        }
    ],
    "buffers" : [
        {
            "byteLength" : 2021988,
            "uri" : "data:application/octet-stream;base64,"
        }
    ]
}
